<svg xmlns="http://www.w3.org/2000/svg" xmlns:xlink="http://www.w3.org/1999/xlink" width="176.915" height="104.508" viewBox="0 0 176.915 104.508">
  <defs>
    <clipPath id="clip-path">
      <rect id="Rectangle_145" data-name="Rectangle 145" width="176.915" height="15.592" fill="#020202"/>
    </clipPath>
  </defs>
  <g id="Group_379" data-name="Group 379" transform="translate(-409 -7353)">
    <g id="Group_239" data-name="Group 239" transform="translate(409 7441.916)">
      <g id="Group_239-2" data-name="Group 239" transform="translate(0 0)" clip-path="url(#clip-path)">
        <path id="Path_195" data-name="Path 195" d="M176.18,11.84a.7.7,0,0,0,.521-.22.752.752,0,0,0,.214-.544.726.726,0,0,0-.214-.536.708.708,0,0,0-.521-.214.729.729,0,0,0-.749.75.752.752,0,0,0,.213.544.717.717,0,0,0,.536.22m-2.951-4.1a3.668,3.668,0,0,1-.389,1.726,2.741,2.741,0,0,1-1.065,1.131,3,3,0,0,1-1.528.389,2.949,2.949,0,0,1-1.506-.4,2.837,2.837,0,0,1-1.08-1.131,3.535,3.535,0,0,1-.4-1.7,3.537,3.537,0,0,1,.4-1.7,2.837,2.837,0,0,1,1.08-1.131,2.949,2.949,0,0,1,1.506-.4,3.058,3.058,0,0,1,1.528.382,2.717,2.717,0,0,1,1.065,1.109,3.617,3.617,0,0,1,.389,1.726m-5.965-2.233V3.744H166.25V15.557h1.014V10a3.233,3.233,0,0,0,1.219,1.344,3.573,3.573,0,0,0,1.969.536,3.8,3.8,0,0,0,1.962-.514,3.564,3.564,0,0,0,1.366-1.455,4.624,4.624,0,0,0,.492-2.174,4.582,4.582,0,0,0-.492-2.167,3.535,3.535,0,0,0-1.366-1.44,3.84,3.84,0,0,0-1.962-.507,3.559,3.559,0,0,0-1.976.536,3.244,3.244,0,0,0-1.213,1.344m-4.291-1.763V8.108a3.042,3.042,0,0,1-.69,2.159,2.421,2.421,0,0,1-1.851.735,2.342,2.342,0,0,1-1.785-.69,2.8,2.8,0,0,1-.653-2V3.744h-1.014V8.431a3.44,3.44,0,0,0,.91,2.578,3.224,3.224,0,0,0,2.351.889,3.414,3.414,0,0,0,1.646-.4,2.472,2.472,0,0,0,1.087-1.146v1.41H164V3.744Zm-11.716,7.243a3.037,3.037,0,0,1-1.462-.36,2.664,2.664,0,0,1-1.072-1.087,3.627,3.627,0,0,1-.4-1.785,3.627,3.627,0,0,1,.4-1.785A2.651,2.651,0,0,1,149.8,4.883a3.179,3.179,0,0,1,2.939,0,2.7,2.7,0,0,1,1.087,1.087,3.582,3.582,0,0,1,.411,1.785,3.522,3.522,0,0,1-.419,1.785,2.745,2.745,0,0,1-1.094,1.087,3.077,3.077,0,0,1-1.469.36m0,.9a4.214,4.214,0,0,0,2.057-.507,3.663,3.663,0,0,0,1.454-1.448,4.359,4.359,0,0,0,.529-2.174,4.4,4.4,0,0,0-.521-2.182,3.641,3.641,0,0,0-1.44-1.44,4.17,4.17,0,0,0-2.049-.507,4.127,4.127,0,0,0-2.042.507,3.706,3.706,0,0,0-1.44,1.44,4.35,4.35,0,0,0-.529,2.182,4.4,4.4,0,0,0,.521,2.182,3.664,3.664,0,0,0,1.425,1.44,4.089,4.089,0,0,0,2.035.507m-7.34-6.714V3.744h-1.028v8.022h1.028V7.285a2.582,2.582,0,0,1,.676-2.013,2.594,2.594,0,0,1,1.793-.6h.279V3.6a3.32,3.32,0,0,0-1.712.411,2.516,2.516,0,0,0-1.036,1.161m-4.3,2.586a3.525,3.525,0,0,1-.4,1.7,2.829,2.829,0,0,1-1.079,1.131,2.952,2.952,0,0,1-1.506.4,3,3,0,0,1-1.528-.389,2.736,2.736,0,0,1-1.065-1.131,3.658,3.658,0,0,1-.389-1.726,3.607,3.607,0,0,1,.389-1.726A2.712,2.712,0,0,1,135.107,4.9a3.056,3.056,0,0,1,1.528-.382,2.951,2.951,0,0,1,1.506.4,2.829,2.829,0,0,1,1.079,1.131,3.528,3.528,0,0,1,.4,1.7m-3.174-4.128a3.868,3.868,0,0,0-1.976.507,3.53,3.53,0,0,0-1.366,1.44,4.572,4.572,0,0,0-.492,2.167,4.615,4.615,0,0,0,.492,2.174,3.559,3.559,0,0,0,1.366,1.455,3.824,3.824,0,0,0,1.976.514,3.536,3.536,0,0,0,1.962-.536,3.221,3.221,0,0,0,1.212-1.359v1.984a3.145,3.145,0,0,1-.353,1.528,2.362,2.362,0,0,1-.97.977,2.91,2.91,0,0,1-1.4.33,3.179,3.179,0,0,1-1.815-.5,2.473,2.473,0,0,1-1.006-1.337h-1.013a3.115,3.115,0,0,0,1.27,2,4.282,4.282,0,0,0,2.564.734,4,4,0,0,0,1.939-.463,3.3,3.3,0,0,0,1.329-1.315,3.923,3.923,0,0,0,.478-1.953V3.744h-1.028V5.492a3.092,3.092,0,0,0-1.205-1.337,3.611,3.611,0,0,0-1.969-.529M71.076,7.314H65.434a2.932,2.932,0,0,1,.9-2.071,2.8,2.8,0,0,1,1.954-.735,3.1,3.1,0,0,1,1.41.324,2.431,2.431,0,0,1,1.021.954,2.856,2.856,0,0,1,.36,1.528m1.043.03a3.831,3.831,0,0,0-.463-1.873,3.453,3.453,0,0,0-1.323-1.345,3.921,3.921,0,0,0-2.005-.5,4.125,4.125,0,0,0-2.042.5,3.482,3.482,0,0,0-1.4,1.44,4.6,4.6,0,0,0-.5,2.189A4.5,4.5,0,0,0,64.9,9.937a3.586,3.586,0,0,0,1.4,1.44,4.044,4.044,0,0,0,2.027.507,3.843,3.843,0,0,0,2.417-.742A3.4,3.4,0,0,0,72,9.224H70.914a2.275,2.275,0,0,1-.9,1.308,2.838,2.838,0,0,1-1.683.485,3.047,3.047,0,0,1-1.41-.331,2.586,2.586,0,0,1-1.043-.977,3.23,3.23,0,0,1-.441-1.558H72.09c.019-.185.029-.455.029-.808M59.484,3.6a3.479,3.479,0,0,0-1.668.4,2.66,2.66,0,0,0-1.124,1.116V.894H55.664V11.766h1.028V7.388a3.04,3.04,0,0,1,.691-2.159,2.417,2.417,0,0,1,1.851-.735,2.338,2.338,0,0,1,1.785.691,2.8,2.8,0,0,1,.654,2v4.584h1.014v-4.7a4.038,4.038,0,0,0-.419-1.918,2.722,2.722,0,0,0-1.146-1.168A3.462,3.462,0,0,0,59.484,3.6M54.217,4.611V3.744h-2.2V1.732H50.971V3.744H49.854v.867h1.116V9.592a2.234,2.234,0,0,0,.529,1.668,2.259,2.259,0,0,0,1.616.507h1.1v-.881h-.94a1.376,1.376,0,0,1-.985-.279,1.426,1.426,0,0,1-.279-1.014V4.611Zm-9.182-.867H43.169V3.186a1.7,1.7,0,0,1,.4-1.278,2.031,2.031,0,0,1,1.4-.382V.644a3.14,3.14,0,0,0-2.168.617,2.5,2.5,0,0,0-.668,1.924v.559H41.025v.867h1.116v7.155h1.028V4.611h1.866Zm-8.883,7.243a3.032,3.032,0,0,1-1.462-.36A2.666,2.666,0,0,1,33.618,9.54a3.636,3.636,0,0,1-.4-1.785,3.636,3.636,0,0,1,.4-1.785A2.653,2.653,0,0,1,34.7,4.883a3.177,3.177,0,0,1,2.938,0A2.7,2.7,0,0,1,38.724,5.97a3.582,3.582,0,0,1,.411,1.785,3.53,3.53,0,0,1-.419,1.785,2.742,2.742,0,0,1-1.095,1.087,3.075,3.075,0,0,1-1.469.36m0,.9a4.212,4.212,0,0,0,2.057-.507,3.659,3.659,0,0,0,1.455-1.448,4.359,4.359,0,0,0,.529-2.174,4.4,4.4,0,0,0-.521-2.182,3.652,3.652,0,0,0-1.44-1.44,4.385,4.385,0,0,0-4.092,0A3.709,3.709,0,0,0,32.7,5.573a4.35,4.35,0,0,0-.529,2.182,4.4,4.4,0,0,0,.521,2.182,3.664,3.664,0,0,0,1.425,1.44,4.088,4.088,0,0,0,2.034.507M26.927,4.611V3.744h-2.2V1.732H23.68V3.744H22.563v.867H23.68V9.592a2.234,2.234,0,0,0,.529,1.668,2.261,2.261,0,0,0,1.616.507h1.1v-.881h-.94A1.372,1.372,0,0,1,25,10.606a1.426,1.426,0,0,1-.28-1.014V4.611Zm-8.088.559V3.744H17.811v8.022h1.028V7.285a2.582,2.582,0,0,1,.676-2.013,2.593,2.593,0,0,1,1.792-.6h.28V3.6a3.32,3.32,0,0,0-1.712.411A2.511,2.511,0,0,0,18.839,5.17m-4.3,2.586a3.525,3.525,0,0,1-.4,1.7,2.825,2.825,0,0,1-1.08,1.131,2.946,2.946,0,0,1-1.505.4A3,3,0,0,1,10.03,10.6,2.73,2.73,0,0,1,8.965,9.467a3.658,3.658,0,0,1-.39-1.726,3.607,3.607,0,0,1,.39-1.726A2.706,2.706,0,0,1,10.03,4.9a3.054,3.054,0,0,1,1.528-.382,2.946,2.946,0,0,1,1.505.4,2.825,2.825,0,0,1,1.08,1.131,3.528,3.528,0,0,1,.4,1.7M7.532,7.74a4.615,4.615,0,0,0,.492,2.174,3.554,3.554,0,0,0,1.366,1.455,3.8,3.8,0,0,0,1.961.514,3.564,3.564,0,0,0,1.976-.536A3.219,3.219,0,0,0,14.54,9.988v1.778h1.029V3.744H14.54V5.507a3.079,3.079,0,0,0-1.2-1.352,3.6,3.6,0,0,0-1.976-.529,3.868,3.868,0,0,0-1.976.507,3.525,3.525,0,0,0-1.366,1.44A4.573,4.573,0,0,0,7.532,7.74M3.1,6.506H1.029V2.363H3.1a2.656,2.656,0,0,1,1.837.529A2.018,2.018,0,0,1,5.51,4.45q0,2.057-2.409,2.057M6.567,4.45A2.782,2.782,0,0,0,5.693,2.3,3.7,3.7,0,0,0,3.1,1.5H0V11.766H1.029V7.388H3.1A3.694,3.694,0,0,0,5.7,6.58a2.776,2.776,0,0,0,.867-2.13" transform="translate(0 -0.111)" fill="#020202"/>
        <path id="Path_196" data-name="Path 196" d="M109.793,12.075V7.616a1.8,1.8,0,0,0-.454-1.375,1.637,1.637,0,0,0-2.16-.04,1.95,1.95,0,0,0-.52,1.615v4.259h-2.307v-4.3a3.615,3.615,0,0,1,1-2.882,3.838,3.838,0,0,1,2.933-1.107,3.969,3.969,0,0,1,2.947,1.068,4.15,4.15,0,0,1,.867,2.922v4.3Z" transform="translate(-17.985 -0.653)" fill="#020202"/>
        <rect id="Rectangle_144" data-name="Rectangle 144" width="2.443" height="8.149" transform="translate(117.146 3.266)" fill="#020202"/>
        <path id="Path_197" data-name="Path 197" d="M144.121,1.395A1.395,1.395,0,1,1,142.727,0a1.394,1.394,0,0,1,1.395,1.395" transform="translate(-24.359 0)" fill="#020202"/>
        <path id="Path_198" data-name="Path 198" d="M119.41,9.406a1.93,1.93,0,0,0,1.9-1.98,1.986,1.986,0,0,0-1.992-2.057,2.019,2.019,0,1,0,.092,4.036m1.885,1.219a3.162,3.162,0,0,1-2.418.96,3.7,3.7,0,0,1-2.555-.96,4.158,4.158,0,0,1-1.429-3.215A4.152,4.152,0,0,1,116.2,4.364a3.792,3.792,0,0,1,2.722-1.127,2.731,2.731,0,0,1,2.3,1.035V.707h2.4V11.538H121.3Z" transform="translate(-19.802 -0.122)" fill="#020202"/>
        <path id="Path_199" data-name="Path 199" d="M148.088,9.643v.074a.776.776,0,0,0,.857.756c.5,0,.8-.252.8-.7,0-.652-.635-.622-1.625-.934-1.373-.43-2.038-1.172-2.038-2.373,0-1.557,1.138-2.654,3.028-2.654a2.517,2.517,0,0,1,2.777,2.447H149.77c-.088-.519-.28-.741-.693-.741a.643.643,0,0,0-.724.652c0,.549.487.682,1.3.9,1.624.444,2.437,1.068,2.437,2.387,0,1.6-1.256,2.758-3.176,2.758a2.743,2.743,0,0,1-3.027-2.58Z" transform="translate(-25.144 -0.658)" fill="#020202"/>
        <path id="Path_200" data-name="Path 200" d="M138.183,3.968l-3.557,8.309-2.528-5.2-2.312,5.2-3.593-8.309h2.456l1.462,3.32,1.1-2.423-.415-.9h2.149l1.481,3.464,1.3-3.464Z" transform="translate(-21.75 -0.684)" fill="#020202"/>
        <path id="Path_201" data-name="Path 201" d="M97.184,10.089a1.853,1.853,0,0,0,1.826-1.9A1.906,1.906,0,0,0,97.1,6.219a1.936,1.936,0,1,0,.088,3.869m1.811,1.168a3.038,3.038,0,0,1-2.322.92,3.559,3.559,0,0,1-2.454-.92,3.981,3.981,0,0,1-1.373-3.08A3.975,3.975,0,0,1,94.1,5.255a3.646,3.646,0,0,1,2.615-1.08,2.625,2.625,0,0,1,2.206.993V4.292h2.307v7.841H98.994Z" transform="translate(-16.002 -0.72)" fill="#020202"/>
      </g>
    </g>
    <g id="cps_new_logo" data-name="cps new logo" transform="translate(424.262 7353)" style="mix-blend-mode: normal;isolation: isolate">
      <g id="Group_373" data-name="Group 373">
        <path id="Path_205" data-name="Path 205" d="M117.04,59.717a29.858,29.858,0,1,0-21.8-50.263,29.849,29.849,0,0,0-43.59,0,29.858,29.858,0,1,0,0,40.808,29.852,29.852,0,0,0,43.592,0,29.778,29.778,0,0,0,21.8,9.454Z" fill="#436684"/>
        <path id="Path_206" data-name="Path 206" d="M623.573,297.765a4.7,4.7,0,0,0-2.186-.485H618.63v7.886h2.757a4.7,4.7,0,0,0,2.186-.485,3.505,3.505,0,0,0,1.458-1.372,4.067,4.067,0,0,0,.514-2.074,4.125,4.125,0,0,0-.514-2.084,3.476,3.476,0,0,0-1.458-1.383Zm-.322,5.378a2.6,2.6,0,0,1-1.921.677h-1.118v-5.208h1.118a2.561,2.561,0,0,1,1.921.695,2.639,2.639,0,0,1,.677,1.926A2.583,2.583,0,0,1,623.251,303.143Z" transform="translate(-482.169 -231.704)" fill="#436684"/>
        <path id="Path_207" data-name="Path 207" d="M585.65,298.557h2.1v6.609h1.582v-6.609h2.1V297.28H585.65Z" transform="translate(-456.464 -231.704)" fill="#436684"/>
        <path id="Path_208" data-name="Path 208" d="M564.082,297.28H562.5v7.886h4.18v-1.255h-2.6Z" transform="translate(-438.421 -231.704)" fill="#436684"/>
        <path id="Path_209" data-name="Path 209" d="M519.643,300.621a9.153,9.153,0,0,0-1.255-.452,8.733,8.733,0,0,1-.876-.3,1.608,1.608,0,0,1-.521-.338.715.715,0,0,1-.21-.525.851.851,0,0,1,.278-.688,1.094,1.094,0,0,1,.739-.238,1.308,1.308,0,0,1,.854.265.907.907,0,0,1,.344.673h1.74a2.2,2.2,0,0,0-.84-1.654,3.138,3.138,0,0,0-1.983-.593,3.61,3.61,0,0,0-1.447.276,2.241,2.241,0,0,0-.984.8,2.126,2.126,0,0,0-.351,1.22,1.9,1.9,0,0,0,.344,1.191,2.172,2.172,0,0,0,.825.666,9.3,9.3,0,0,0,1.248.446,9.1,9.1,0,0,1,.887.287,1.539,1.539,0,0,1,.536.355.8.8,0,0,1,.214.576.865.865,0,0,1-.315.695,1.315,1.315,0,0,1-.869.265,1.215,1.215,0,0,1-.854-.282,1.089,1.089,0,0,1-.344-.768H515.11a2.139,2.139,0,0,0,.395,1.255,2.455,2.455,0,0,0,1.046.814,3.757,3.757,0,0,0,1.485.282,3.28,3.28,0,0,0,1.5-.322,2.308,2.308,0,0,0,.96-.865,2.232,2.232,0,0,0,.329-1.176,1.884,1.884,0,0,0-.351-1.187,2.233,2.233,0,0,0-.836-.677Z" transform="translate(-401.484 -231.307)" fill="#436684"/>
        <path id="Path_210" data-name="Path 210" d="M487.26,305.127h4.577v-1.288h-3v-2.091H491.5v-1.253h-2.656v-1.976h3V297.23H487.26Z" transform="translate(-379.778 -231.666)" fill="#436684"/>
        <path id="Path_211" data-name="Path 211" d="M447.427,298.565a2.34,2.34,0,0,1,1.227-.322,2.248,2.248,0,0,1,1.136.282,1.873,1.873,0,0,1,.763.847h1.82a3.544,3.544,0,0,0-1.39-1.875,4,4,0,0,0-2.316-.677,4.079,4.079,0,0,0-2.038.514,3.746,3.746,0,0,0-1.434,1.434,4.388,4.388,0,0,0,0,4.162,3.766,3.766,0,0,0,1.434,1.429,4.324,4.324,0,0,0,4.361-.159,3.51,3.51,0,0,0,1.383-1.882h-1.82a1.925,1.925,0,0,1-.763.854,2.208,2.208,0,0,1-1.136.289,2.35,2.35,0,0,1-1.227-.322,2.172,2.172,0,0,1-.836-.915,3.3,3.3,0,0,1,0-2.751,2.2,2.2,0,0,1,.836-.909Z" transform="translate(-346.582 -231.346)" fill="#436684"/>
        <rect id="Rectangle_175" data-name="Rectangle 175" width="1.582" height="7.886" transform="translate(94.988 65.576)" fill="#436684"/>
        <path id="Path_212" data-name="Path 212" d="M393.715,303.549l-2.171-6.269H389.85l2.892,7.886h1.921l2.892-7.886h-1.683Z" transform="translate(-303.855 -231.704)" fill="#436684"/>
        <path id="Path_213" data-name="Path 213" d="M363.656,301.087a2.359,2.359,0,0,0,.452-1.407,2.385,2.385,0,0,0-.322-1.227,2.248,2.248,0,0,0-.966-.871,3.467,3.467,0,0,0-1.56-.322H358.3v7.886h1.582v-3.073h.746l1.74,3.073H364.2l-1.886-3.2a2.318,2.318,0,0,0,1.343-.865Zm-2.451-.2h-1.321v-2.316h1.321a1.345,1.345,0,0,1,.96.3,1.111,1.111,0,0,1,.315.843,1.174,1.174,0,0,1-.315.865,1.321,1.321,0,0,1-.96.311Z" transform="translate(-279.264 -231.689)" fill="#436684"/>
        <path id="Path_214" data-name="Path 214" d="M329.52,305.127h4.575v-1.288H331.1v-2.091h2.654v-1.253H331.1v-1.976h2.993V297.23H329.52Z" transform="translate(-256.833 -231.666)" fill="#436684"/>
        <path id="Path_215" data-name="Path 215" d="M300.385,300.621a9.15,9.15,0,0,0-1.255-.452,8.733,8.733,0,0,1-.876-.3,1.607,1.607,0,0,1-.521-.338.715.715,0,0,1-.21-.525.856.856,0,0,1,.276-.688,1.1,1.1,0,0,1,.741-.238,1.308,1.308,0,0,1,.854.265.9.9,0,0,1,.344.673h1.74a2.194,2.194,0,0,0-.843-1.654,3.143,3.143,0,0,0-1.983-.593,3.61,3.61,0,0,0-1.447.276,2.241,2.241,0,0,0-.984.8,2.126,2.126,0,0,0-.351,1.22,1.9,1.9,0,0,0,.344,1.191,2.171,2.171,0,0,0,.825.666,9.3,9.3,0,0,0,1.249.446,9.1,9.1,0,0,1,.887.287,1.519,1.519,0,0,1,.536.355.8.8,0,0,1,.214.576.865.865,0,0,1-.315.695,1.315,1.315,0,0,1-.869.265,1.215,1.215,0,0,1-.854-.282,1.089,1.089,0,0,1-.344-.768H295.85a2.14,2.14,0,0,0,.395,1.255,2.456,2.456,0,0,0,1.046.814,3.761,3.761,0,0,0,1.487.282,3.281,3.281,0,0,0,1.5-.322,2.308,2.308,0,0,0,.96-.865,2.232,2.232,0,0,0,.329-1.176,1.884,1.884,0,0,0-.351-1.187,2.234,2.234,0,0,0-.836-.677Z" transform="translate(-230.59 -231.307)" fill="#436684"/>
        <path id="Path_216" data-name="Path 216" d="M244.058,301.641h2.711a2.3,2.3,0,0,1-.757,1.339,2.236,2.236,0,0,1-1.48.481,2.563,2.563,0,0,1-1.288-.315,2.207,2.207,0,0,1-.865-.9,2.909,2.909,0,0,1-.311-1.379,2.869,2.869,0,0,1,.3-1.357,2.181,2.181,0,0,1,.847-.9,2.413,2.413,0,0,1,1.242-.315,2.257,2.257,0,0,1,1.107.26,1.866,1.866,0,0,1,.746.757h1.82a3.32,3.32,0,0,0-1.357-1.824,4.4,4.4,0,0,0-4.365-.135,3.735,3.735,0,0,0-1.447,1.434,4.388,4.388,0,0,0,0,4.162,3.724,3.724,0,0,0,1.447,1.429,4.142,4.142,0,0,0,2.063.514,3.934,3.934,0,0,0,1.835-.424,3.83,3.83,0,0,0,1.339-1.123,3.714,3.714,0,0,0,.677-1.524v-1.379h-4.271v1.209Z" transform="translate(-187.402 -231.354)" fill="#436684"/>
        <path id="Path_217" data-name="Path 217" d="M208.174,302.652l-3.582-5.422H203.01v7.9h1.582v-5.411l3.582,5.411h1.582v-7.9h-1.582Z" transform="translate(-158.229 -231.666)" fill="#436684"/>
        <rect id="Rectangle_176" data-name="Rectangle 176" width="1.582" height="7.886" transform="translate(41.302 65.576)" fill="#436684"/>
        <path id="Path_218" data-name="Path 218" d="M153.923,297.765a4.708,4.708,0,0,0-2.186-.485H148.98v7.886h2.757a4.708,4.708,0,0,0,2.186-.485,3.5,3.5,0,0,0,1.458-1.372,4.067,4.067,0,0,0,.514-2.074,4.126,4.126,0,0,0-.514-2.084,3.476,3.476,0,0,0-1.458-1.383Zm-.322,5.378a2.6,2.6,0,0,1-1.921.677h-1.118v-5.208h1.118a2.565,2.565,0,0,1,1.921.695,2.639,2.639,0,0,1,.677,1.926A2.584,2.584,0,0,1,153.6,303.143Z" transform="translate(-116.117 -231.704)" fill="#436684"/>
        <path id="Path_219" data-name="Path 219" d="M125.522,297.28H123.94v7.886h4.18v-1.255h-2.6Z" transform="translate(-96.601 -231.704)" fill="#436684"/>
        <rect id="Rectangle_177" data-name="Rectangle 177" width="1.582" height="7.886" transform="translate(23.858 65.576)" fill="#436684"/>
        <path id="Path_220" data-name="Path 220" d="M75.592,302.152a1.67,1.67,0,0,1-.419,1.226,1.593,1.593,0,0,1-1.187.424,1.57,1.57,0,0,1-1.176-.424,1.676,1.676,0,0,1-.419-1.226V297.27H70.81v4.868a3.23,3.23,0,0,0,.419,1.7,2.665,2.665,0,0,0,1.136,1.046,3.6,3.6,0,0,0,1.6.351,3.714,3.714,0,0,0,1.621-.351,2.775,2.775,0,0,0,1.165-1.046,3.153,3.153,0,0,0,.435-1.7V297.27H75.592Z" transform="translate(-55.19 -231.697)" fill="#436684"/>
        <path id="Path_221" data-name="Path 221" d="M40.941,301.12a1.967,1.967,0,0,0,.977-.655,1.8,1.8,0,0,0,.368-1.151,1.88,1.88,0,0,0-.3-1.05,1.979,1.979,0,0,0-.88-.724,3.351,3.351,0,0,0-1.383-.26H36.47v7.886h3.4a3.3,3.3,0,0,0,1.39-.271,2.053,2.053,0,0,0,.9-.752,2,2,0,0,0,.311-1.112,1.941,1.941,0,0,0-.43-1.242,1.765,1.765,0,0,0-1.1-.666Zm-2.892-2.565H39.5a1.294,1.294,0,0,1,.869.26.916.916,0,0,1,.3.735.9.9,0,0,1-.3.728,1.321,1.321,0,0,1-.869.254H38.049Zm2.49,5.049a1.355,1.355,0,0,1-.9.271H38.049v-2.124h1.56a1.371,1.371,0,0,1,.915.287.994.994,0,0,1,.34.8.941.941,0,0,1-.322.768Z" transform="translate(-28.425 -231.704)" fill="#436684"/>
      </g>
      <g id="Group_374" data-name="Group 374" transform="translate(7.262 18.304)">
        <path id="Path_222" data-name="Path 222" d="M68.428,82.99H39.377a6.457,6.457,0,0,0-6.457,6.457v10.76a6.457,6.457,0,0,0,6.457,6.457H68.428a6.457,6.457,0,0,0,6.457-6.457V97.518H64.6v.053a3.294,3.294,0,0,1-3.293,3.293H46.493A3.294,3.294,0,0,1,43.2,97.571V92.083a3.294,3.294,0,0,1,3.293-3.293H61.309A3.293,3.293,0,0,1,64.6,92.083v.053H74.884V89.447A6.457,6.457,0,0,0,68.428,82.99Z" transform="translate(-32.92 -82.988)" fill="#fff"/>
        <path id="Path_223" data-name="Path 223" d="M455.078,87.961h17.371a2.015,2.015,0,0,1,2.014,2.014h10.282v-.538a6.457,6.457,0,0,0-6.457-6.457H449.237a6.457,6.457,0,0,0-6.457,6.457v1.076a6.457,6.457,0,0,0,6.457,6.457l23.212.406a2.014,2.014,0,1,1,0,4.028H455.078a2.007,2.007,0,0,1-1.987-1.745H442.782v.538a6.457,6.457,0,0,0,6.457,6.457H478.29a6.457,6.457,0,0,0,6.457-6.457V98.582a6.457,6.457,0,0,0-6.457-6.457l-23.212-.137a2.014,2.014,0,0,1,0-4.028Z" transform="translate(-352.371 -82.98)" fill="#fff"/>
        <path id="Path_224" data-name="Path 224" d="M282.268,82.982H249.99v23.671h10.222v-5.932h22.056a6.457,6.457,0,0,0,6.456-6.457V89.437a6.457,6.457,0,0,0-6.456-6.457Zm-6.774,11.7H260.08v-5.9h15.414a2.949,2.949,0,0,1,0,5.9Z" transform="translate(-202.108 -82.98)" fill="#fff"/>
      </g>
    </g>
  </g>
</svg>
