<?xml version="1.0" encoding="UTF-8"?>
<svg id="Layer_2" data-name="Layer 2" xmlns="http://www.w3.org/2000/svg" viewBox="0 0 176.92 104.51">
  <defs>
    <style>
      .cls-1 {
        fill: #fff;
      }
    </style>
  </defs>
  <g id="Layer_1-2" data-name="Layer 1">
    <path id="Path_195" data-name="Path 195" class="cls-1" d="m176.18,100.65c.2,0,.39-.08.52-.22.14-.15.22-.34.21-.54,0-.2-.07-.39-.21-.54-.14-.14-.33-.22-.52-.21-.4-.01-.74.31-.75.71,0,.01,0,.03,0,.04,0,.2.07.4.21.54.14.15.33.23.54.22m-2.95-4.1c.01.6-.12,1.19-.39,1.73-.24.47-.61.86-1.07,1.13-.47.26-.99.4-1.53.39-.53,0-1.05-.13-1.51-.4-.46-.27-.83-.66-1.08-1.13-.27-.52-.41-1.11-.4-1.7-.01-.59.13-1.18.4-1.7.25-.47.62-.86,1.08-1.13.46-.27.98-.4,1.51-.4.53,0,1.06.12,1.53.38.45.26.82.64,1.07,1.11.27.53.4,1.13.39,1.73m-5.96-2.23v-1.76h-1.01v11.81h1.01v-5.56c.27.56.69,1.02,1.22,1.34.59.37,1.27.55,1.97.54.69,0,1.37-.17,1.96-.51.58-.35,1.06-.85,1.37-1.45.34-.67.51-1.42.49-2.17.02-.75-.15-1.5-.49-2.17-.31-.6-.78-1.1-1.37-1.44-.6-.34-1.27-.52-1.96-.51-.7-.02-1.38.17-1.98.54-.52.32-.94.79-1.21,1.34m-4.29-1.76v4.37c.06.78-.19,1.56-.69,2.16-.48.5-1.16.77-1.85.73-.67.03-1.32-.22-1.79-.69-.47-.56-.7-1.27-.65-2v-4.57h-1.01v4.69c-.07.95.26,1.88.91,2.58.63.6,1.48.92,2.35.89.57,0,1.14-.13,1.65-.4.48-.25.86-.66,1.09-1.15v1.41h1.03v-8.02h-1.03Zm-11.72,7.24c-.51,0-1.01-.12-1.46-.36-.46-.25-.83-.63-1.07-1.09-.28-.55-.42-1.17-.4-1.78-.02-.62.12-1.23.4-1.78.25-.46.62-.84,1.08-1.08.92-.48,2.02-.48,2.94,0,.46.25.84.63,1.09,1.09.29.55.43,1.16.41,1.78.02.62-.12,1.24-.42,1.79-.25.46-.63.84-1.09,1.09-.45.24-.96.36-1.47.36m0,.9c.72,0,1.43-.17,2.06-.51.61-.33,1.12-.84,1.45-1.45.36-.67.54-1.42.53-2.17.02-.76-.16-1.51-.52-2.18-.33-.61-.83-1.11-1.44-1.44-.63-.34-1.33-.52-2.05-.51-.71-.01-1.42.16-2.04.51-.61.34-1.1.83-1.44,1.44-.36.67-.55,1.42-.53,2.18-.02.76.16,1.51.52,2.18.33.6.82,1.1,1.43,1.44.62.34,1.32.52,2.04.51m-7.34-6.71v-1.43h-1.03v8.02h1.03v-4.48c-.07-.74.17-1.47.68-2.01.5-.42,1.14-.63,1.79-.6h.28v-1.07c-.6-.02-1.19.12-1.71.41-.46.27-.82.67-1.04,1.16m-4.3,2.59c.01.59-.13,1.18-.4,1.7-.25.47-.62.86-1.08,1.13-.46.27-.98.4-1.51.4-.53,0-1.06-.13-1.53-.39-.46-.27-.83-.66-1.07-1.13-.27-.53-.4-1.13-.39-1.73-.02-.6.12-1.19.39-1.73.24-.47.61-.86,1.07-1.12.47-.26.99-.39,1.53-.38.53,0,1.05.13,1.51.4.46.27.83.66,1.08,1.13.27.52.41,1.11.4,1.7m-3.17-4.13c-.69-.01-1.37.16-1.98.51-.58.34-1.06.84-1.37,1.44-.34.67-.51,1.42-.49,2.17-.02.75.15,1.5.49,2.17.31.61.78,1.11,1.37,1.45.6.35,1.28.52,1.98.51.69.02,1.37-.17,1.96-.54.53-.33.95-.8,1.21-1.36v1.98c.01.53-.11,1.06-.35,1.53-.22.41-.56.75-.97.98-.43.23-.91.34-1.4.33-.64.02-1.27-.15-1.82-.5-.48-.32-.84-.79-1.01-1.34h-1.01c.14.81.6,1.53,1.27,2,.75.51,1.65.77,2.56.73.68.01,1.34-.15,1.94-.46.56-.3,1.02-.76,1.33-1.32.33-.6.49-1.27.48-1.95v-8.22h-1.03v1.75c-.26-.56-.68-1.02-1.21-1.34-.59-.36-1.28-.55-1.97-.53m-65.36,3.69h-5.64c.01-.78.34-1.53.9-2.07.53-.49,1.23-.75,1.95-.74.49,0,.97.11,1.41.32.43.21.78.54,1.02.95.26.47.39,1,.36,1.53m1.04.03c0-.65-.15-1.3-.46-1.87-.31-.56-.77-1.03-1.32-1.35-.61-.34-1.3-.52-2-.5-.71-.01-1.42.16-2.04.5-.6.33-1.08.83-1.4,1.44-.34.68-.52,1.43-.5,2.19-.02.76.16,1.51.51,2.18.32.6.81,1.1,1.4,1.44.62.34,1.32.52,2.03.51.87.03,1.72-.23,2.42-.74.63-.47,1.07-1.15,1.26-1.92h-1.09c-.13.53-.45.99-.9,1.31-.5.34-1.08.5-1.68.48-.49,0-.97-.11-1.41-.33-.43-.22-.79-.56-1.04-.98-.28-.47-.43-1.01-.44-1.56h6.65c.02-.18.03-.45.03-.81m-12.63-3.74c-.58,0-1.15.13-1.67.4-.48.25-.87.64-1.12,1.12v-4.22h-1.03v10.87h1.03v-4.38c-.06-.78.19-1.56.69-2.16.48-.5,1.16-.77,1.85-.74.67-.03,1.32.22,1.78.69.47.56.7,1.27.65,2v4.58h1.01v-4.7c.02-.66-.12-1.32-.42-1.92-.25-.5-.65-.91-1.15-1.17-.51-.26-1.07-.39-1.64-.38m-5.27,1.01v-.87h-2.2v-2.01h-1.05v2.01h-1.12v.87h1.12v4.98c-.06.6.13,1.21.53,1.67.45.37,1.03.55,1.62.51h1.1v-.88h-.94c-.35.04-.7-.06-.99-.28-.22-.29-.32-.65-.28-1.01v-4.98h2.21Zm-9.18-.87h-1.87v-.56c-.05-.46.1-.92.4-1.28.4-.3.9-.43,1.4-.38v-.88c-.77-.07-1.55.15-2.17.62-.49.52-.73,1.22-.67,1.92v.56h-1.11v.87h1.12v7.16h1.03v-7.16h1.87v-.87Zm-8.88,7.24c-.51,0-1.01-.12-1.46-.36-.46-.25-.83-.63-1.07-1.09-.28-.55-.42-1.17-.4-1.78-.02-.62.12-1.23.4-1.78.25-.46.62-.84,1.08-1.09.92-.48,2.02-.48,2.94,0,.46.25.84.63,1.09,1.09.29.55.43,1.16.41,1.78.02.62-.12,1.24-.42,1.79-.25.46-.63.84-1.1,1.09-.45.24-.96.36-1.47.36m0,.9c.72,0,1.43-.17,2.06-.51.61-.33,1.12-.84,1.46-1.45.36-.67.54-1.42.53-2.17.02-.76-.16-1.51-.52-2.18-.33-.61-.83-1.11-1.44-1.44-1.28-.68-2.81-.68-4.09,0-.6.34-1.1.83-1.44,1.44-.36.67-.55,1.42-.53,2.18-.02.76.16,1.51.52,2.18.33.6.82,1.1,1.42,1.44.62.34,1.32.52,2.03.51m-9.22-7.27v-.87h-2.2v-2.01h-1.05v2.01h-1.12v.87h1.12v4.98c-.06.6.13,1.21.53,1.67.45.37,1.03.55,1.62.51h1.1v-.88h-.94c-.35.04-.71-.06-.98-.28-.22-.29-.32-.65-.28-1.01v-4.98h2.21Zm-8.09.56v-1.43h-1.03v8.02h1.03v-4.48c-.07-.74.17-1.47.68-2.01.5-.42,1.14-.63,1.79-.6h.28v-1.07c-.6-.02-1.19.12-1.71.41-.46.27-.82.67-1.04,1.16m-4.3,2.59c.01.59-.13,1.18-.4,1.7-.25.47-.62.86-1.08,1.13-.46.27-.98.4-1.51.4-.53,0-1.06-.12-1.52-.39-.46-.27-.83-.66-1.06-1.13-.27-.53-.4-1.13-.39-1.73-.02-.6.12-1.19.39-1.73.24-.47.61-.85,1.06-1.12.47-.26.99-.39,1.53-.38.53,0,1.05.13,1.51.4.46.27.83.66,1.08,1.13.27.52.41,1.11.4,1.7m-7.01,0c-.02.75.15,1.5.49,2.17.31.61.78,1.11,1.37,1.45.6.35,1.27.52,1.96.51.7.02,1.38-.17,1.98-.54.53-.33.95-.8,1.21-1.36v1.78h1.03v-8.02h-1.03v1.76c-.26-.56-.67-1.03-1.2-1.35-.59-.36-1.28-.55-1.98-.53-.69-.01-1.37.16-1.98.51-.58.34-1.06.84-1.37,1.44-.34.67-.51,1.42-.49,2.17m-4.43-1.23H1.03v-4.14h2.07c.66-.06,1.31.13,1.84.53.41.41.61.98.57,1.56,0,1.37-.8,2.06-2.41,2.06m3.47-2.06c.04-.81-.28-1.59-.87-2.15-.73-.59-1.66-.87-2.59-.8H0v10.27h1.03v-4.38h2.07c.94.07,1.87-.22,2.6-.81.58-.55.9-1.33.87-2.13"/>
    <path id="Path_196" data-name="Path 196" class="cls-1" d="m91.81,100.34v-4.46c.05-.5-.12-1-.45-1.38-.61-.55-1.53-.57-2.16-.04-.41.43-.6,1.03-.52,1.61v4.26h-2.31v-4.3c-.11-1.06.26-2.12,1-2.88.78-.77,1.84-1.17,2.93-1.11,1.09-.06,2.15.32,2.95,1.07.65.83.96,1.87.87,2.92v4.3h-2.31Z"/>
    <rect id="Rectangle_144" data-name="Rectangle 144" class="cls-1" x="117.15" y="92.18" width="2.44" height="8.15"/>
    <path id="Path_197" data-name="Path 197" class="cls-1" d="m119.76,90.31c0,.77-.62,1.39-1.4,1.39-.77,0-1.39-.62-1.39-1.4s.62-1.39,1.39-1.39c0,0,0,0,0,0,.77,0,1.39.62,1.4,1.39h0"/>
    <path id="Path_198" data-name="Path 198" class="cls-1" d="m99.61,98.2c1.07-.02,1.92-.89,1.9-1.96,0,0,0-.01,0-.02.04-1.1-.82-2.02-1.91-2.06-.03,0-.05,0-.08,0-1.12,0-2.02.91-2.02,2.02,0,1.12.91,2.02,2.02,2.02.03,0,.06,0,.09,0m1.89,1.22c-.63.65-1.51,1-2.42.96-.94.02-1.86-.33-2.56-.96-.93-.81-1.45-1.98-1.43-3.22,0-1.15.47-2.26,1.31-3.05.72-.73,1.7-1.13,2.72-1.13.89-.05,1.75.34,2.3,1.03v-3.56h2.4v10.83h-2.32v-.91Z"/>
    <path id="Path_199" data-name="Path 199" class="cls-1" d="m122.94,97.9v.07c0,.43.36.77.79.76.02,0,.04,0,.07,0,.5,0,.8-.25.8-.7,0-.65-.63-.62-1.62-.93-1.37-.43-2.04-1.17-2.04-2.37,0-1.56,1.14-2.65,3.03-2.65,1.38-.14,2.62.86,2.76,2.24,0,.07.01.14.01.2h-2.12c-.09-.52-.28-.74-.69-.74-.35-.04-.67.2-.72.56,0,.03,0,.06,0,.1,0,.55.49.68,1.3.9,1.62.44,2.44,1.07,2.44,2.39,0,1.6-1.26,2.76-3.18,2.76-1.51.16-2.86-.93-3.02-2.44,0-.05,0-.09-.01-.14h2.2Z"/>
    <path id="Path_200" data-name="Path 200" class="cls-1" d="m116.43,92.2l-3.56,8.31-2.53-5.2-2.31,5.2-3.59-8.31h2.46l1.46,3.32,1.1-2.42-.41-.9h2.15l1.48,3.46,1.3-3.46h2.46Z"/>
    <path id="Path_201" data-name="Path 201" class="cls-1" d="m81.18,98.29c1.02-.01,1.84-.86,1.83-1.88,0,0,0-.01,0-.02.04-1.05-.79-1.93-1.84-1.97-.02,0-.05,0-.07,0-1.07-.01-1.94.85-1.95,1.92-.01,1.07.85,1.94,1.92,1.95.04,0,.08,0,.12,0m1.81,1.17c-.61.63-1.45.96-2.32.92-.91.02-1.78-.31-2.45-.92-.89-.77-1.39-1.9-1.37-3.08,0-1.11.45-2.16,1.25-2.92.69-.7,1.63-1.09,2.61-1.08.85-.05,1.68.32,2.21.99v-.88h2.31v7.84h-2.23v-.88Z"/>
    <g id="Group_373" data-name="Group 373">
      <path class="cls-1" d="m95.91,24.11h-15.41v5.9h15.41c1.63,0,2.95-1.32,2.95-2.95s-1.32-2.95-2.95-2.95Zm0,0h-15.41v5.9h15.41c1.63,0,2.95-1.32,2.95-2.95s-1.32-2.95-2.95-2.95ZM132.3,0C124.04,0,116.15,3.42,110.5,9.45c-11.26-12.03-30.15-12.66-42.19-1.4-.48.45-.95.92-1.4,1.4-11.27-12.04-30.16-12.66-42.2-1.39-12.04,11.27-12.66,30.16-1.4,42.2,11.27,12.04,30.17,12.67,42.21,1.4.48-.45.94-.92,1.39-1.4,11.27,12.04,30.16,12.67,42.2,1.4.48-.45.94-.92,1.39-1.4,5.64,6.04,13.54,9.47,21.8,9.46,16.49,0,29.86-13.37,29.86-29.86S148.79,0,132.3,0Zm-67.81,27.45h-10.29v-.05c0-1.82-1.47-3.29-3.29-3.29h-14.81c-1.82,0-3.3,1.47-3.3,3.29v5.49c0,1.82,1.48,3.29,3.3,3.29h14.81c1.82,0,3.29-1.47,3.29-3.29v-.06h10.29v2.69c0,3.57-2.89,6.46-6.46,6.46h-29.05c-3.57,0-6.46-2.89-6.46-6.46v-10.76c0-3.56,2.89-6.45,6.46-6.45h29.05c3.57,0,6.46,2.89,6.46,6.45v2.69Zm44.65,2.14c0,3.56-2.89,6.45-6.46,6.45h-22.05v5.94h-10.22v-23.67h32.27c3.57-.01,6.46,2.89,6.46,6.45v4.83Zm16.09-2.28l23.21.14c3.57,0,6.46,2.89,6.46,6.46v1.61c0,3.57-2.89,6.46-6.46,6.46h-29.05c-3.56,0-6.45-2.89-6.45-6.46v-.54h10.3c.14,1,.98,1.75,1.99,1.75h17.37c1.11,0,2.02-.9,2.02-2.02s-.91-2.01-2.02-2.01l-23.21-.41c-3.57,0-6.46-2.89-6.46-6.45v-1.08c0-3.57,2.89-6.46,6.46-6.46h29.05c3.57,0,6.46,2.89,6.46,6.46v.54h-10.28c0-1.11-.91-2.01-2.02-2.02h-17.37c-1.11,0-2.01.91-2.01,2.02s.9,2.01,2.01,2.01Zm-29.32-3.2h-15.41v5.9h15.41c1.63,0,2.95-1.32,2.95-2.95s-1.32-2.95-2.95-2.95Z"/>
      <path id="Path_206" data-name="Path 206" class="cls-1" d="m158.12,67.45c-.34-.6-.84-1.08-1.45-1.39-.68-.33-1.43-.5-2.19-.48h-2.76v7.88h2.76c.76.02,1.51-.15,2.19-.48.61-.31,1.11-.79,1.45-1.37.36-.64.53-1.35.52-2.08.01-.73-.16-1.45-.52-2.08Zm-1.78,3.99c-.52.48-1.21.72-1.92.68h-1.12v-5.21h1.12c.71-.05,1.41.2,1.92.69.48.53.72,1.22.68,1.93.04.7-.2,1.39-.68,1.91Z"/>
      <path id="Path_207" data-name="Path 207" class="cls-1" d="m144.45,66.86h2.1v6.61h1.58v-6.61h2.1v-1.28h-5.78v1.28Z"/>
      <path id="Path_208" data-name="Path 208" class="cls-1" d="m140.92,65.58h-1.58v7.89h4.18v-1.26h-2.6v-6.63Z"/>
      <path id="Path_209" data-name="Path 209" class="cls-1" d="m133.42,69.32c-.41-.18-.83-.33-1.26-.45-.3-.08-.59-.18-.88-.3-.19-.08-.37-.19-.52-.34-.14-.14-.22-.33-.21-.52-.02-.26.08-.51.28-.69.21-.17.47-.25.74-.24.31-.01.61.08.85.27.21.16.33.41.34.67h1.74c-.02-.65-.33-1.25-.84-1.65-.57-.42-1.27-.63-1.98-.59-.5,0-.99.09-1.45.28-.4.17-.74.44-.98.8-.24.36-.36.79-.35,1.22-.02.42.1.84.34,1.19.22.29.5.52.83.67.4.18.82.33,1.25.45.3.08.6.18.89.29.2.08.38.2.54.36.15.16.22.36.21.58,0,.27-.11.52-.32.7-.25.19-.56.28-.87.27-.31.02-.62-.08-.85-.28-.21-.2-.34-.48-.34-.77h-1.69c0,.45.13.89.4,1.26.27.36.63.64,1.05.81.47.19.98.29,1.48.28.52.01,1.03-.1,1.5-.32.4-.19.73-.49.96-.86.22-.35.33-.76.33-1.18.02-.42-.1-.84-.35-1.19-.22-.29-.51-.52-.84-.68h0Z"/>
      <path id="Path_210" data-name="Path 210" class="cls-1" d="m122.74,73.46h4.58v-1.29h-3v-2.09h2.66v-1.25h-2.66v-1.98h3v-1.29h-4.58v7.9Z"/>
      <path id="Path_211" data-name="Path 211" class="cls-1" d="m116.11,67.22c.37-.22.8-.33,1.23-.32.4,0,.79.09,1.14.28.34.2.6.49.76.85h1.82c-.24-.76-.73-1.42-1.39-1.88-.68-.46-1.49-.7-2.32-.68-.71,0-1.42.17-2.04.51-.6.34-1.1.83-1.43,1.43-.7,1.3-.7,2.86,0,4.16.34.6.83,1.09,1.43,1.43,1.38.74,3.04.68,4.36-.16.66-.45,1.15-1.12,1.38-1.88h-1.82c-.16.36-.43.65-.76.85-.35.2-.74.3-1.14.29-.43,0-.86-.1-1.23-.32-.36-.22-.65-.54-.84-.92-.4-.87-.4-1.88,0-2.75.19-.38.48-.69.84-.91h0Z"/>
      <rect id="Rectangle_175" data-name="Rectangle 175" class="cls-1" x="110.25" y="65.58" width="1.58" height="7.89"/>
      <path id="Path_212" data-name="Path 212" class="cls-1" d="m105.12,71.85l-2.17-6.27h-1.69l2.89,7.89h1.92l2.89-7.89h-1.68l-2.16,6.27Z"/>
      <path id="Path_213" data-name="Path 213" class="cls-1" d="m98.31,70.26c.54-.12,1.01-.43,1.34-.87.3-.41.46-.89.46-1.4,0-.43-.11-.85-.33-1.23-.23-.38-.56-.68-.96-.87-.49-.22-1.02-.33-1.56-.32h-2.96v7.89h1.58v-3.08h.75l1.74,3.08h1.83l-1.89-3.2Zm-1.11-1.06h-1.32v-2.32h1.32c.35-.03.69.08.96.3.22.23.34.53.32.84.02.32-.1.64-.32.87-.26.23-.61.34-.96.31Z"/>
      <path id="Path_214" data-name="Path 214" class="cls-1" d="m87.95,73.46h4.58v-1.29h-2.99v-2.09h2.65v-1.25h-2.65v-1.98h2.99v-1.29h-4.57v7.9Z"/>
      <path id="Path_215" data-name="Path 215" class="cls-1" d="m85.06,69.32c-.41-.18-.83-.33-1.26-.45-.3-.08-.59-.18-.88-.3-.19-.08-.37-.19-.52-.34-.14-.14-.22-.33-.21-.52-.02-.26.08-.51.28-.69.21-.17.47-.25.74-.24.31-.01.61.08.85.27.21.16.33.41.34.67h1.74c-.02-.65-.33-1.25-.84-1.65-.58-.42-1.27-.62-1.98-.59-.5,0-.99.09-1.45.28-.4.17-.74.44-.98.8-.24.36-.36.79-.35,1.22-.02.42.1.84.34,1.19.22.29.5.52.83.67.41.18.82.33,1.25.45.3.08.6.18.89.29.2.08.38.2.54.36.15.16.22.36.21.58,0,.27-.11.52-.32.7-.25.19-.56.28-.87.27-.31.02-.62-.08-.85-.28-.21-.2-.34-.48-.34-.77h-1.69c0,.45.13.89.39,1.26.27.36.63.64,1.05.81.47.19.98.29,1.49.28.52.01,1.03-.1,1.5-.32.4-.19.73-.49.96-.86.22-.35.33-.76.33-1.18.02-.42-.1-.84-.35-1.19-.22-.29-.51-.52-.84-.68h0Z"/>
      <path id="Path_216" data-name="Path 216" class="cls-1" d="m71.92,70.29h2.71c-.09.52-.36.99-.76,1.34-.42.33-.94.5-1.48.48-.45,0-.89-.1-1.29-.32-.37-.21-.67-.52-.87-.9-.22-.43-.32-.9-.31-1.38-.01-.47.09-.94.3-1.36.19-.38.48-.69.85-.9.38-.21.81-.32,1.24-.32.39,0,.77.08,1.11.26.32.17.58.44.75.76h1.82c-.22-.75-.7-1.39-1.36-1.82-1.33-.81-2.99-.87-4.37-.14-.61.33-1.11.83-1.45,1.43-.7,1.3-.7,2.86,0,4.16.34.6.84,1.1,1.45,1.43.63.35,1.34.53,2.06.51.64,0,1.27-.14,1.84-.42.53-.27.99-.65,1.34-1.12.34-.45.57-.97.68-1.52v-1.38h-4.27v1.21h0Z"/>
      <path id="Path_217" data-name="Path 217" class="cls-1" d="m65.21,70.99l-3.58-5.42h-1.58v7.9h1.58v-5.41l3.58,5.41h1.58v-7.9h-1.58v5.42Z"/>
      <rect id="Rectangle_176" data-name="Rectangle 176" class="cls-1" x="56.56" y="65.58" width="1.58" height="7.89"/>
      <path id="Path_218" data-name="Path 218" class="cls-1" d="m54.53,67.45c-.34-.6-.85-1.08-1.46-1.39-.68-.33-1.43-.5-2.19-.48h-2.76v7.88h2.76c.76.02,1.51-.15,2.19-.48.61-.31,1.11-.79,1.46-1.37.35-.64.53-1.35.51-2.08.02-.73-.16-1.45-.51-2.08Zm-1.78,3.99c-.53.48-1.22.72-1.93.68h-1.11v-5.21h1.11c.71-.05,1.41.21,1.93.69.47.53.71,1.22.67,1.93.05.7-.2,1.39-.67,1.91Z"/>
      <path id="Path_219" data-name="Path 219" class="cls-1" d="m44.18,65.58h-1.58v7.89h4.18v-1.26h-2.6v-6.63Z"/>
      <rect id="Rectangle_177" data-name="Rectangle 177" class="cls-1" x="39.12" y="65.58" width="1.58" height="7.89"/>
      <path id="Path_220" data-name="Path 220" class="cls-1" d="m35.66,70.46c.03.45-.12.89-.42,1.23-.32.3-.75.45-1.19.42-.43.03-.86-.13-1.18-.42-.3-.34-.45-.78-.42-1.23v-4.88h-1.58v4.87c-.02.59.13,1.18.42,1.7.27.45.66.82,1.14,1.05.5.24,1.05.36,1.6.35.56,0,1.11-.11,1.62-.35.48-.23.89-.59,1.17-1.05.3-.51.45-1.1.43-1.7v-4.87h-1.59v4.88Z"/>
      <path id="Path_221" data-name="Path 221" class="cls-1" d="m28.88,70.08c-.27-.35-.66-.59-1.1-.66.38-.12.72-.35.97-.66.26-.33.39-.74.37-1.15.01-.37-.1-.74-.3-1.05-.21-.32-.52-.57-.88-.72-.43-.19-.91-.28-1.38-.26h-3.25v7.88h3.4c.47,0,.95-.08,1.39-.27.36-.16.68-.42.9-.75.21-.33.32-.72.31-1.11,0-.45-.15-.89-.43-1.25Zm-3.99-3.23h1.45c.31-.02.62.07.87.26.2.19.31.46.3.74.01.27-.1.54-.3.72-.25.19-.56.28-.87.26h-1.45v-1.98Zm2.49,5.05c-.26.19-.58.29-.9.27h-1.59v-2.12h1.56c.33-.02.65.08.91.28.23.2.36.5.34.8.02.3-.1.58-.32.77Z"/>
    </g>
  </g>
</svg>